<mxfile host="app.diagrams.net" modified="2023-09-08T15:21:17.491Z" agent="Mozilla/5.0 (Windows NT 10.0; Win64; x64) AppleWebKit/537.36 (KHTML, like Gecko) Chrome/116.0.0.0 Safari/537.36" etag="uwBNbKMzxMm0BF1w3acS" version="21.7.2" type="device">
  <diagram name="Halaman-1" id="t_a4Jd1vLxW4AVWdWrQE">
    <mxGraphModel dx="1674" dy="1951" grid="1" gridSize="10" guides="1" tooltips="1" connect="1" arrows="1" fold="1" page="1" pageScale="1" pageWidth="827" pageHeight="1169" math="0" shadow="0">
      <root>
        <mxCell id="0" />
        <mxCell id="1" parent="0" />
        <mxCell id="hTyEi2ToGvVdf-coQK0_-3" value="Start" style="ellipse;whiteSpace=wrap;html=1;fontSize=16;" vertex="1" parent="1">
          <mxGeometry x="358.5" y="-10" width="120" height="80" as="geometry" />
        </mxCell>
        <mxCell id="hTyEi2ToGvVdf-coQK0_-6" value="" style="endArrow=classic;html=1;rounded=0;fontSize=12;startSize=8;endSize=8;curved=1;exitX=0.5;exitY=1;exitDx=0;exitDy=0;" edge="1" parent="1" source="hTyEi2ToGvVdf-coQK0_-3" target="hTyEi2ToGvVdf-coQK0_-7">
          <mxGeometry width="50" height="50" relative="1" as="geometry">
            <mxPoint x="390" y="650" as="sourcePoint" />
            <mxPoint x="417" y="130" as="targetPoint" />
          </mxGeometry>
        </mxCell>
        <mxCell id="hTyEi2ToGvVdf-coQK0_-7" value="Membuat class bankAcount dan constructor owner, nama, balance" style="rounded=0;whiteSpace=wrap;html=1;" vertex="1" parent="1">
          <mxGeometry x="320.5" y="130" width="193" height="50" as="geometry" />
        </mxCell>
        <mxCell id="hTyEi2ToGvVdf-coQK0_-8" value="if constructor === bankAccount" style="rhombus;whiteSpace=wrap;html=1;" vertex="1" parent="1">
          <mxGeometry x="355.5" y="200" width="123" height="90" as="geometry" />
        </mxCell>
        <mxCell id="hTyEi2ToGvVdf-coQK0_-9" value="" style="endArrow=classic;html=1;rounded=0;exitX=0.5;exitY=1;exitDx=0;exitDy=0;entryX=0.5;entryY=0;entryDx=0;entryDy=0;" edge="1" parent="1" source="hTyEi2ToGvVdf-coQK0_-7" target="hTyEi2ToGvVdf-coQK0_-8">
          <mxGeometry width="50" height="50" relative="1" as="geometry">
            <mxPoint x="390" y="370" as="sourcePoint" />
            <mxPoint x="440" y="320" as="targetPoint" />
          </mxGeometry>
        </mxCell>
        <mxCell id="hTyEi2ToGvVdf-coQK0_-10" value="" style="endArrow=classic;html=1;rounded=0;exitX=1;exitY=0.5;exitDx=0;exitDy=0;entryX=1;entryY=0.5;entryDx=0;entryDy=0;" edge="1" parent="1" source="hTyEi2ToGvVdf-coQK0_-8" target="hTyEi2ToGvVdf-coQK0_-7">
          <mxGeometry width="50" height="50" relative="1" as="geometry">
            <mxPoint x="390" y="370" as="sourcePoint" />
            <mxPoint x="440" y="320" as="targetPoint" />
            <Array as="points">
              <mxPoint x="560" y="245" />
              <mxPoint x="560" y="155" />
            </Array>
          </mxGeometry>
        </mxCell>
        <mxCell id="hTyEi2ToGvVdf-coQK0_-11" value="&lt;br&gt;" style="edgeLabel;html=1;align=center;verticalAlign=middle;resizable=0;points=[];" vertex="1" connectable="0" parent="hTyEi2ToGvVdf-coQK0_-10">
          <mxGeometry x="0.1789" relative="1" as="geometry">
            <mxPoint y="1" as="offset" />
          </mxGeometry>
        </mxCell>
        <mxCell id="hTyEi2ToGvVdf-coQK0_-13" value="YES" style="edgeLabel;html=1;align=center;verticalAlign=middle;resizable=0;points=[];" vertex="1" connectable="0" parent="hTyEi2ToGvVdf-coQK0_-10">
          <mxGeometry x="0.1606" relative="1" as="geometry">
            <mxPoint y="1" as="offset" />
          </mxGeometry>
        </mxCell>
        <mxCell id="hTyEi2ToGvVdf-coQK0_-14" value="membuat property owner, nama, balance" style="rounded=0;whiteSpace=wrap;html=1;" vertex="1" parent="1">
          <mxGeometry x="180" y="215" width="120" height="60" as="geometry" />
        </mxCell>
        <mxCell id="hTyEi2ToGvVdf-coQK0_-15" value="" style="endArrow=classic;html=1;rounded=0;exitX=0;exitY=0.5;exitDx=0;exitDy=0;entryX=1;entryY=0.5;entryDx=0;entryDy=0;" edge="1" parent="1" source="hTyEi2ToGvVdf-coQK0_-8" target="hTyEi2ToGvVdf-coQK0_-14">
          <mxGeometry width="50" height="50" relative="1" as="geometry">
            <mxPoint x="390" y="370" as="sourcePoint" />
            <mxPoint x="440" y="320" as="targetPoint" />
          </mxGeometry>
        </mxCell>
        <mxCell id="hTyEi2ToGvVdf-coQK0_-16" value="NO" style="edgeLabel;html=1;align=center;verticalAlign=middle;resizable=0;points=[];" vertex="1" connectable="0" parent="hTyEi2ToGvVdf-coQK0_-15">
          <mxGeometry x="-0.4648" y="2" relative="1" as="geometry">
            <mxPoint x="-17" y="-2" as="offset" />
          </mxGeometry>
        </mxCell>
        <mxCell id="hTyEi2ToGvVdf-coQK0_-17" value="membuat method tampilBalance" style="rounded=0;whiteSpace=wrap;html=1;" vertex="1" parent="1">
          <mxGeometry x="180" y="300" width="120" height="60" as="geometry" />
        </mxCell>
        <mxCell id="hTyEi2ToGvVdf-coQK0_-18" value="" style="endArrow=classic;html=1;rounded=0;exitX=0.5;exitY=1;exitDx=0;exitDy=0;entryX=0.5;entryY=0;entryDx=0;entryDy=0;" edge="1" parent="1" source="hTyEi2ToGvVdf-coQK0_-14" target="hTyEi2ToGvVdf-coQK0_-17">
          <mxGeometry width="50" height="50" relative="1" as="geometry">
            <mxPoint x="390" y="370" as="sourcePoint" />
            <mxPoint x="440" y="320" as="targetPoint" />
          </mxGeometry>
        </mxCell>
        <mxCell id="hTyEi2ToGvVdf-coQK0_-19" value="&lt;font style=&quot;font-size: 11px;&quot;&gt;Membuat class Transaksi extends bankAccount&amp;nbsp;&lt;/font&gt;" style="rounded=0;whiteSpace=wrap;html=1;" vertex="1" parent="1">
          <mxGeometry x="344" y="400" width="140" height="50" as="geometry" />
        </mxCell>
        <mxCell id="hTyEi2ToGvVdf-coQK0_-20" value="" style="endArrow=classic;html=1;rounded=0;exitX=0;exitY=0.5;exitDx=0;exitDy=0;entryX=0;entryY=0.5;entryDx=0;entryDy=0;" edge="1" parent="1" source="hTyEi2ToGvVdf-coQK0_-7" target="hTyEi2ToGvVdf-coQK0_-19">
          <mxGeometry width="50" height="50" relative="1" as="geometry">
            <mxPoint x="390" y="380" as="sourcePoint" />
            <mxPoint x="440" y="330" as="targetPoint" />
            <Array as="points">
              <mxPoint x="120" y="155" />
              <mxPoint x="120" y="425" />
            </Array>
          </mxGeometry>
        </mxCell>
        <mxCell id="hTyEi2ToGvVdf-coQK0_-22" value="&lt;font style=&quot;font-size: 11px;&quot;&gt;&lt;span style=&quot;color: rgb(0, 0, 0); font-family: Helvetica; font-style: normal; font-variant-ligatures: normal; font-variant-caps: normal; font-weight: 400; letter-spacing: normal; orphans: 2; text-align: center; text-indent: 0px; text-transform: none; widows: 2; word-spacing: 0px; -webkit-text-stroke-width: 0px; background-color: rgb(251, 251, 251); text-decoration-thickness: initial; text-decoration-style: initial; text-decoration-color: initial; float: none; display: inline !important;&quot;&gt;membuat method withdraw&lt;/span&gt;&lt;/font&gt;" style="rounded=0;whiteSpace=wrap;html=1;" vertex="1" parent="1">
          <mxGeometry x="540" y="510" width="120" height="60" as="geometry" />
        </mxCell>
        <mxCell id="hTyEi2ToGvVdf-coQK0_-23" value="&lt;font style=&quot;font-size: 11px;&quot;&gt;membuat method deposit&amp;nbsp;&lt;/font&gt;" style="rounded=0;whiteSpace=wrap;html=1;" vertex="1" parent="1">
          <mxGeometry x="150" y="510" width="120" height="60" as="geometry" />
        </mxCell>
        <mxCell id="hTyEi2ToGvVdf-coQK0_-24" value="" style="endArrow=classic;html=1;rounded=0;exitX=0.5;exitY=1;exitDx=0;exitDy=0;entryX=0.5;entryY=0;entryDx=0;entryDy=0;" edge="1" parent="1" source="hTyEi2ToGvVdf-coQK0_-19" target="hTyEi2ToGvVdf-coQK0_-23">
          <mxGeometry width="50" height="50" relative="1" as="geometry">
            <mxPoint x="390" y="390" as="sourcePoint" />
            <mxPoint x="440" y="340" as="targetPoint" />
            <Array as="points">
              <mxPoint x="340" y="470" />
            </Array>
          </mxGeometry>
        </mxCell>
        <mxCell id="hTyEi2ToGvVdf-coQK0_-25" value="" style="endArrow=classic;html=1;rounded=0;exitX=0.5;exitY=1;exitDx=0;exitDy=0;entryX=0.5;entryY=0;entryDx=0;entryDy=0;" edge="1" parent="1" source="hTyEi2ToGvVdf-coQK0_-19" target="hTyEi2ToGvVdf-coQK0_-22">
          <mxGeometry width="50" height="50" relative="1" as="geometry">
            <mxPoint x="390" y="390" as="sourcePoint" />
            <mxPoint x="440" y="340" as="targetPoint" />
          </mxGeometry>
        </mxCell>
        <mxCell id="hTyEi2ToGvVdf-coQK0_-26" value="if&amp;nbsp; amount&amp;lt;= 0" style="rhombus;whiteSpace=wrap;html=1;" vertex="1" parent="1">
          <mxGeometry x="60" y="620" width="90" height="80" as="geometry" />
        </mxCell>
        <mxCell id="hTyEi2ToGvVdf-coQK0_-32" value="tampilkan saldo sekarang" style="shape=parallelogram;perimeter=parallelogramPerimeter;whiteSpace=wrap;html=1;fixedSize=1;" vertex="1" parent="1">
          <mxGeometry x="50" y="730" width="120" height="60" as="geometry" />
        </mxCell>
        <mxCell id="hTyEi2ToGvVdf-coQK0_-33" value="" style="endArrow=classic;html=1;rounded=0;exitX=1;exitY=0.5;exitDx=0;exitDy=0;entryX=1;entryY=0.5;entryDx=0;entryDy=0;" edge="1" parent="1" source="hTyEi2ToGvVdf-coQK0_-26" target="hTyEi2ToGvVdf-coQK0_-32">
          <mxGeometry width="50" height="50" relative="1" as="geometry">
            <mxPoint x="390" y="600" as="sourcePoint" />
            <mxPoint x="440" y="550" as="targetPoint" />
            <Array as="points">
              <mxPoint x="200" y="660" />
              <mxPoint x="200" y="760" />
            </Array>
          </mxGeometry>
        </mxCell>
        <mxCell id="hTyEi2ToGvVdf-coQK0_-34" value="NO" style="edgeLabel;html=1;align=center;verticalAlign=middle;resizable=0;points=[];" vertex="1" connectable="0" parent="hTyEi2ToGvVdf-coQK0_-33">
          <mxGeometry x="0.0657" y="2" relative="1" as="geometry">
            <mxPoint as="offset" />
          </mxGeometry>
        </mxCell>
        <mxCell id="hTyEi2ToGvVdf-coQK0_-35" value="if amount &amp;gt; balance" style="rhombus;whiteSpace=wrap;html=1;" vertex="1" parent="1">
          <mxGeometry x="555" y="590" width="90" height="80" as="geometry" />
        </mxCell>
        <mxCell id="hTyEi2ToGvVdf-coQK0_-36" value="" style="endArrow=classic;html=1;rounded=0;exitX=1;exitY=0.5;exitDx=0;exitDy=0;" edge="1" parent="1" source="hTyEi2ToGvVdf-coQK0_-35">
          <mxGeometry width="50" height="50" relative="1" as="geometry">
            <mxPoint x="390" y="500" as="sourcePoint" />
            <mxPoint x="660" y="550" as="targetPoint" />
            <Array as="points">
              <mxPoint x="730" y="630" />
              <mxPoint x="730" y="550" />
            </Array>
          </mxGeometry>
        </mxCell>
        <mxCell id="hTyEi2ToGvVdf-coQK0_-37" value="YES" style="edgeLabel;html=1;align=center;verticalAlign=middle;resizable=0;points=[];" vertex="1" connectable="0" parent="hTyEi2ToGvVdf-coQK0_-36">
          <mxGeometry x="0.0512" y="-1" relative="1" as="geometry">
            <mxPoint y="-1" as="offset" />
          </mxGeometry>
        </mxCell>
        <mxCell id="hTyEi2ToGvVdf-coQK0_-38" value="tampilkan saldo sekarang" style="shape=parallelogram;perimeter=parallelogramPerimeter;whiteSpace=wrap;html=1;fixedSize=1;" vertex="1" parent="1">
          <mxGeometry x="540" y="700" width="120" height="60" as="geometry" />
        </mxCell>
        <mxCell id="hTyEi2ToGvVdf-coQK0_-43" value="membuat method transaksi" style="rounded=0;whiteSpace=wrap;html=1;" vertex="1" parent="1">
          <mxGeometry x="355.5" y="510" width="120" height="60" as="geometry" />
        </mxCell>
        <mxCell id="hTyEi2ToGvVdf-coQK0_-44" value="" style="endArrow=classic;html=1;rounded=0;exitX=0;exitY=0.5;exitDx=0;exitDy=0;entryX=0.5;entryY=0;entryDx=0;entryDy=0;" edge="1" parent="1" source="hTyEi2ToGvVdf-coQK0_-23" target="hTyEi2ToGvVdf-coQK0_-26">
          <mxGeometry width="50" height="50" relative="1" as="geometry">
            <mxPoint x="390" y="500" as="sourcePoint" />
            <mxPoint x="440" y="450" as="targetPoint" />
            <Array as="points">
              <mxPoint x="105" y="540" />
            </Array>
          </mxGeometry>
        </mxCell>
        <mxCell id="hTyEi2ToGvVdf-coQK0_-45" value="YES" style="edgeLabel;html=1;align=center;verticalAlign=middle;resizable=0;points=[];" vertex="1" connectable="0" parent="hTyEi2ToGvVdf-coQK0_-44">
          <mxGeometry x="0.248" y="2" relative="1" as="geometry">
            <mxPoint as="offset" />
          </mxGeometry>
        </mxCell>
        <mxCell id="hTyEi2ToGvVdf-coQK0_-46" value="" style="endArrow=classic;html=1;rounded=0;exitX=0.5;exitY=1;exitDx=0;exitDy=0;entryX=0.5;entryY=0;entryDx=0;entryDy=0;" edge="1" parent="1" source="hTyEi2ToGvVdf-coQK0_-19" target="hTyEi2ToGvVdf-coQK0_-43">
          <mxGeometry width="50" height="50" relative="1" as="geometry">
            <mxPoint x="390" y="500" as="sourcePoint" />
            <mxPoint x="440" y="450" as="targetPoint" />
          </mxGeometry>
        </mxCell>
        <mxCell id="hTyEi2ToGvVdf-coQK0_-47" value="Pilih operasi" style="shape=parallelogram;perimeter=parallelogramPerimeter;whiteSpace=wrap;html=1;fixedSize=1;" vertex="1" parent="1">
          <mxGeometry x="357" y="840" width="120" height="60" as="geometry" />
        </mxCell>
        <mxCell id="hTyEi2ToGvVdf-coQK0_-48" value="" style="endArrow=classic;html=1;rounded=0;exitX=1;exitY=0.5;exitDx=0;exitDy=0;entryX=1;entryY=0.5;entryDx=0;entryDy=0;" edge="1" parent="1" source="hTyEi2ToGvVdf-coQK0_-19" target="hTyEi2ToGvVdf-coQK0_-47">
          <mxGeometry width="50" height="50" relative="1" as="geometry">
            <mxPoint x="390" y="700" as="sourcePoint" />
            <mxPoint x="440" y="650" as="targetPoint" />
            <Array as="points">
              <mxPoint x="800" y="425" />
              <mxPoint x="800" y="870" />
            </Array>
          </mxGeometry>
        </mxCell>
        <mxCell id="hTyEi2ToGvVdf-coQK0_-49" value="Operasi" style="rhombus;whiteSpace=wrap;html=1;" vertex="1" parent="1">
          <mxGeometry x="378.5" y="930" width="80" height="80" as="geometry" />
        </mxCell>
        <mxCell id="hTyEi2ToGvVdf-coQK0_-50" value="" style="endArrow=classic;html=1;rounded=0;exitX=0.5;exitY=1;exitDx=0;exitDy=0;entryX=0.5;entryY=0;entryDx=0;entryDy=0;" edge="1" parent="1" source="hTyEi2ToGvVdf-coQK0_-47" target="hTyEi2ToGvVdf-coQK0_-49">
          <mxGeometry width="50" height="50" relative="1" as="geometry">
            <mxPoint x="390" y="1100" as="sourcePoint" />
            <mxPoint x="440" y="1050" as="targetPoint" />
          </mxGeometry>
        </mxCell>
        <mxCell id="hTyEi2ToGvVdf-coQK0_-52" value="&lt;font style=&quot;font-size: 11px;&quot;&gt;deposit&lt;/font&gt;" style="rounded=0;whiteSpace=wrap;html=1;" vertex="1" parent="1">
          <mxGeometry x="190" y="940" width="120" height="60" as="geometry" />
        </mxCell>
        <mxCell id="hTyEi2ToGvVdf-coQK0_-53" value="&lt;font style=&quot;font-size: 11px;&quot;&gt;deposit&lt;/font&gt;" style="rounded=0;whiteSpace=wrap;html=1;" vertex="1" parent="1">
          <mxGeometry x="510" y="940" width="120" height="60" as="geometry" />
        </mxCell>
        <mxCell id="hTyEi2ToGvVdf-coQK0_-54" value="" style="endArrow=classic;html=1;rounded=0;exitX=0;exitY=0.5;exitDx=0;exitDy=0;entryX=1;entryY=0.5;entryDx=0;entryDy=0;" edge="1" parent="1" source="hTyEi2ToGvVdf-coQK0_-49" target="hTyEi2ToGvVdf-coQK0_-52">
          <mxGeometry width="50" height="50" relative="1" as="geometry">
            <mxPoint x="390" y="800" as="sourcePoint" />
            <mxPoint x="440" y="750" as="targetPoint" />
          </mxGeometry>
        </mxCell>
        <mxCell id="hTyEi2ToGvVdf-coQK0_-55" value="" style="endArrow=classic;html=1;rounded=0;exitX=1;exitY=0.5;exitDx=0;exitDy=0;entryX=0;entryY=0.5;entryDx=0;entryDy=0;" edge="1" parent="1" source="hTyEi2ToGvVdf-coQK0_-49" target="hTyEi2ToGvVdf-coQK0_-53">
          <mxGeometry width="50" height="50" relative="1" as="geometry">
            <mxPoint x="390" y="800" as="sourcePoint" />
            <mxPoint x="440" y="750" as="targetPoint" />
          </mxGeometry>
        </mxCell>
        <mxCell id="hTyEi2ToGvVdf-coQK0_-56" value="Tampilkan saldo" style="shape=parallelogram;perimeter=parallelogramPerimeter;whiteSpace=wrap;html=1;fixedSize=1;" vertex="1" parent="1">
          <mxGeometry x="358.5" y="1040" width="120" height="60" as="geometry" />
        </mxCell>
        <mxCell id="hTyEi2ToGvVdf-coQK0_-57" value="End" style="ellipse;whiteSpace=wrap;html=1;fontSize=16;" vertex="1" parent="1">
          <mxGeometry x="358.5" y="1140" width="120" height="80" as="geometry" />
        </mxCell>
        <mxCell id="hTyEi2ToGvVdf-coQK0_-58" value="" style="endArrow=classic;html=1;rounded=0;exitX=0.5;exitY=1;exitDx=0;exitDy=0;entryX=0.5;entryY=0;entryDx=0;entryDy=0;" edge="1" parent="1" source="hTyEi2ToGvVdf-coQK0_-49" target="hTyEi2ToGvVdf-coQK0_-56">
          <mxGeometry width="50" height="50" relative="1" as="geometry">
            <mxPoint x="390" y="890" as="sourcePoint" />
            <mxPoint x="440" y="840" as="targetPoint" />
          </mxGeometry>
        </mxCell>
        <mxCell id="hTyEi2ToGvVdf-coQK0_-59" value="" style="endArrow=classic;html=1;rounded=0;exitX=0.5;exitY=1;exitDx=0;exitDy=0;" edge="1" parent="1" source="hTyEi2ToGvVdf-coQK0_-56" target="hTyEi2ToGvVdf-coQK0_-57">
          <mxGeometry width="50" height="50" relative="1" as="geometry">
            <mxPoint x="390" y="890" as="sourcePoint" />
            <mxPoint x="440" y="840" as="targetPoint" />
          </mxGeometry>
        </mxCell>
      </root>
    </mxGraphModel>
  </diagram>
</mxfile>
